<?xml version="1.0" encoding="UTF-8"?><svg preserveAspectRatio="none" id="Layer_2" xmlns="http://www.w3.org/2000/svg" viewBox="0 0 128.96 196.72"><g id="Layer_1-2"><path d="m24.97,39.5c0,5.41,1.09,10.58,3.06,15.28C12.34,60.53,1.64,69.91.19,80.65h-.19v35.1c9.54,0,17.27,10.27,17.27,22.93s-7.73,22.93-17.27,22.93v35.1h128.96v-35.1c-9.54,0-17.27-10.27-17.27-22.93s7.73-22.93,17.27-22.93v-35.1h-.19c-1.45-10.74-12.14-20.12-27.85-25.88,1.97-4.69,3.07-9.86,3.07-15.27C103.99,17.69,86.3,0,64.48,0S24.97,17.69,24.97,39.5"/></g></svg>