<?xml version="1.0" encoding="utf-8"?>
<!-- Generator: Adobe Illustrator 27.1.1, SVG Export Plug-In . SVG Version: 6.00 Build 0)  -->
<svg version="1.1" id="Layer_1" xmlns="http://www.w3.org/2000/svg" xmlns:xlink="http://www.w3.org/1999/xlink" x="0px" y="0px"
	 viewBox="0 0 216 22" style="enable-background:new 0 0 216 22;" xml:space="preserve">
<style type="text/css">
	.st0{clip-path:url(#SVGID_00000030463048143620180970000011586299281333439640_);}
	.st1{fill:#FFFFFF;}
</style>
<g>
	<defs>
		<rect id="SVGID_1_" width="216" height="22"/>
	</defs>
	<clipPath id="SVGID_00000152265700842459156470000004747345055243683749_">
		<use xlink:href="#SVGID_1_"  style="overflow:visible;"/>
	</clipPath>
	
		<g id="POPCONN_x5F_Logo_x5F_White_x5F_RGB_1" style="clip-path:url(#SVGID_00000152265700842459156470000004747345055243683749_);">
		<path id="Vector" class="st1" d="M13.8,11.9c2.9,0,4.4-1.8,4.4-3.9S16.6,4,13.8,4H5.1v7.8H13.8z M5.1,15.9V22H0V0h18.3l4.8,4.8v6
			L18,15.9H5.1z"/>
		<path id="Vector_2" class="st1" d="M45.8,18.1c4.1,0,6.9-2.9,6.9-7.1c0-4.2-2.8-7.1-6.9-7.1h-8.1c-4.2,0-6.9,2.9-6.9,7.1
			c0,4.2,2.7,7.1,6.9,7.1H45.8z M25.7,15.6V6.7L32.4,0h18.9l6.4,6.4v8.9L51,22H32.1L25.7,15.6z"/>
		<path id="Vector_3" class="st1" d="M75.2,11.9c2.9,0,4.4-1.8,4.4-3.9S78.1,4,75.2,4h-8.6v7.8H75.2z M66.6,15.9V22h-5.1V0h18.3
			l4.8,4.8v6l-5.1,5.1H66.6L66.6,15.9z"/>
		<path id="Vector_4" class="st1" d="M106.7,18.1c4.1,0,6.8-2.1,6.9-4.7h5v1.9l-6.7,6.7H93.6l-6.4-6.4V6.7L93.9,0h18.3l6.4,6.4v2.2
			h-5c0-2.6-2.7-4.7-6.9-4.7h-7.5c-4.2,0-6.9,2.9-6.9,7.1c0,4.2,2.7,7.1,6.9,7.1H106.7"/>
		<path id="Vector_5" class="st1" d="M141.3,18.1c4.1,0,6.9-2.9,6.9-7.1c0-4.2-2.8-7.1-6.9-7.1h-8.1c-4.2,0-6.9,2.9-6.9,7.1
			c0,4.2,2.7,7.1,6.9,7.1H141.3z M121.3,15.6V6.7L128,0h18.9l6.4,6.4v8.9l-6.7,6.7h-18.9L121.3,15.6z"/>
		<path id="Vector_6" class="st1" d="M179.2,0v13.4H179L163.2,0H157v22h5.1V5.3h0.2l16.1,13.6l0,3.2h5.9V0H179.2z"/>
		<path id="Vector_7" class="st1" d="M210.9,0v13.4h-0.2L194.8,0h-6.1v22h5.1V5.3h0.2l16.1,13.6l0,3.2h5.9V0H210.9z"/>
	</g>
</g>
</svg>
