<svg width="216" height="22" viewBox="0 0 216 22" fill="none" xmlns="http://www.w3.org/2000/svg">
<g id="POPCONN_Logo_White_RGB 1" clip-path="url(#clip0_1355_3295)">
<path id="Vector" d="M13.7507 11.8615C16.615 11.8615 18.1104 10.0454 18.1104 7.93956C18.1104 5.83372 16.615 4.01764 13.7507 4.01764H5.12422V11.8615H13.7507ZM5.12422 15.8791V22H0V0H18.3351L23.1107 4.7834V10.7775L18.0174 15.8791H5.12422Z" fill="black"/>
<path id="Vector_2" d="M45.7773 18.1091C49.9149 18.1091 52.7172 15.2065 52.7172 11C52.7172 6.79351 49.9485 3.89087 45.7773 3.89087H37.6932C33.522 3.89087 30.7533 6.79092 30.7533 11C30.7533 15.2091 33.491 18.1091 37.6932 18.1091H45.7773ZM25.7246 15.623V6.6952L32.4088 0H51.3483L57.7149 6.377V15.3048L51.0306 22H32.0911L25.7246 15.623Z" fill="black"/>
<path id="Vector_3" d="M75.2253 11.8615C78.0896 11.8615 79.585 10.0454 79.585 7.93956C79.585 5.83372 78.087 4.01764 75.2253 4.01764H66.5988V11.8615H75.2253ZM66.5988 15.8791V22H61.4746V0H79.8097L84.5853 4.7834V10.7775L79.492 15.8791H66.6014H66.5988Z" fill="black"/>
<path id="Vector_4" d="M106.679 18.1091C110.817 18.1091 113.523 15.9748 113.554 13.3904H118.552V15.3022L111.868 21.9974H93.5638L87.1973 15.6204V6.6952L93.8815 0H112.183L118.55 6.377V8.60959H113.552C113.521 6.02775 110.845 3.89087 106.677 3.89087H99.1658C94.9947 3.89087 92.2259 6.79351 92.2259 11C92.2259 15.2065 94.9637 18.1091 99.1658 18.1091H106.677" fill="black"/>
<path id="Vector_5" d="M141.348 18.1091C145.485 18.1091 148.287 15.2065 148.287 11C148.287 6.79351 145.519 3.89087 141.348 3.89087H133.263C129.092 3.89087 126.324 6.79092 126.324 11C126.324 15.2091 129.061 18.1091 133.263 18.1091H141.348ZM121.295 15.623V6.6952L127.979 0H146.919L153.285 6.377V15.3048L146.601 22H127.661L121.295 15.623Z" fill="black"/>
<path id="Vector_6" d="M179.231 0V13.3594H179.04L163.156 0H157.045V22H162.169V5.29304H162.36L178.466 18.8438L178.497 22H184.355V0H179.231Z" fill="black"/>
<path id="Vector_7" d="M210.875 0V13.3594H210.684L194.8 0H188.689V22H193.814V5.29304H194.005L210.111 18.8438L210.142 22H216V0H210.875Z" fill="black"/>
</g>
<defs>
<clipPath id="clip0_1355_3295">
<rect width="216" height="22" fill="white"/>
</clipPath>
</defs>
</svg>
